#!OML:ASF E:\Steps\Project 1\Capture day 1\Session 2\Subject.ASF
:FULLY-SPECIFIED
:DEGREES
492
root 9.86218 16.4304 4.10729 -160.546 -0.0456337 177.136
lowerback -20.0545 -1.35336 -6.4542
upperback 2.0365 -0.256002 -0.126517
thorax 13.6945 -0.632608 3.45504
lowerneck -3.87368 -2.60143 -1.0337
upperneck 21.6906 -2.4091 2.18832
head 7.31042 -0.472337 0.783534
rclavicle 1.51573e-015 1.78906e-015
rhumerus -32.8794 -12.1875 -80.3332
rradius 43.0955
rwrist -9.89113
rhand -9.10589 -50.2864
rfingers 7.12502
rthumb 16.8445 -79.5758
lclavicle 1.51573e-015 1.78906e-015
lhumerus -31.4855 7.37186 78.9617
lradius 18.5395
lwrist -11.1241
lhand -17.285 -11.5083
lfingers 7.12502
lthumb 8.96031 18.2814
rfemur -22.3702 5.78204 20.8693
rtibia 10.4248
rfoot -15.0974 -4.70326
rtoes -24.4108
lfemur -71.1164 -3.00214 -22.0202
ltibia 82.4416
lfoot -13.1002 3.54095
ltoes -27.4243
493
root 9.86218 16.4337 4.05252 -160.607 0.0551191 177.153
lowerback -19.9705 -1.30989 -6.42934
upperback 2.09347 -0.208217 -0.0956394
thorax 13.7068 -0.610321 3.49117
lowerneck -3.66742 -2.60183 -1.23132
upperneck 21.4856 -2.39501 2.16893
head 7.20899 -0.491515 0.811447
rclavicle 4.78326e-015 2.59414e-014
rhumerus -32.6918 -11.769 -80.3898
rradius 43.4001
rwrist -9.84959
rhand -9.40604 -50.1839
rfingers 7.12502
rthumb 16.5556 -79.4976
lclavicle 4.78326e-015 2.59414e-014
lhumerus -31.682 8.52628 78.4785
lradius 18.2735
lwrist -11.8177
lhand -17.1222 -10.8303
lfingers 7.12502
lthumb 9.11746 18.9526
rfemur -22.0991 5.99749 20.8742
rtibia 10.4476
rfoot -15.2865 -4.72962
rtoes -24.483
lfemur -71.7274 -3.02342 -21.8852
ltibia 81.7313
lfoot -12.9192 3.71855
ltoes -29.2051
494
root 9.86319 16.4346 4.00064 -160.579 0.118622 177.003
lowerback -19.9443 -1.29749 -6.59121
upperback 2.11198 -0.145234 -0.169794
thorax 13.7077 -0.591433 3.5187
lowerneck -3.6125 -2.62138 -1.11682
upperneck 21.4491 -2.41826 2.0881
head 7.18505 -0.501076 0.764407
rclavicle -3.32964e-015 1.77415e-014
rhumerus -32.6223 -11.4083 -80.5571
rradius 43.774
rwrist -9.75092
rhand -9.87808 -49.9902
rfingers 7.12502
rthumb 16.1011 -79.3413
lclavicle -3.32964e-015 1.77415e-014
lhumerus -31.8859 9.22898 77.9761
lradius 17.9422
lwrist -12.1278
lhand -17.5934 -11.6558
lfingers 7.12502
lthumb 8.66274 18.1465
rfemur -21.9189 5.99524 20.7271
rtibia 10.4404
rfoot -15.3861 -4.71574
rtoes -24.7323
lfemur -72.2677 -3.13701 -21.8787
ltibia 80.8526
lfoot -12.7025 3.77037
ltoes -30.1959
495
root 9.86559 16.4358 3.94893 -160.537 0.0874308 176.864
lowerback -19.8566 -1.26062 -6.68944
upperback 2.07502 -0.0689721 -0.298678
thorax 13.6044 -0.555433 3.45163
lowerneck -3.63376 -0.737708 -1.15499
upperneck 21.4003 -3.09491 2.76714
head 7.19166 -1.94807 0.79415
rclavicle 1.71452e-015 8.89561e-015
rhumerus -32.6697 -11.1554 -80.7485
rradius 44.1243
rwrist -9.74565
rhand -9.32628 -51.9101
rfingers 7.12502
rthumb 16.6323 -81.2174
lclavicle 1.71452e-015 8.89561e-015
lhumerus -32.1776 9.64764 77.4444
lradius 17.5812
lwrist -12.3433
lhand -18.5064 -13.2371
lfingers 7.12502
lthumb 7.78158 16.5997
rfemur -21.7305 6.1641 20.565
rtibia 10.3931
rfoot -15.541 -4.935
rtoes -24.4926
lfemur -72.7181 -3.28383 -21.829
ltibia 79.845
lfoot -12.4891 3.77773
ltoes -30.0203
496
root 9.86815 16.4395 3.89464 -160.558 0.0322536 176.783
lowerback -19.7507 -1.20762 -6.72656
upperback 2.06802 0.0107928 -0.386104
thorax 13.5249 -0.515473 3.39799
lowerneck -3.6539 -0.768478 -1.36542
upperneck 21.5217 -3.20726 3.09449
head 7.24516 -1.99712 0.926191
rclavicle -5.91384e-015 -1.2921e-015
rhumerus -32.6329 -11.0444 -80.8488
rradius 44.2444
rwrist -9.76023
rhand -9.42329 -52.1342
rfingers 7.12502
rthumb 16.5389 -81.4494
lclavicle -5.91384e-015 -1.2921e-015
lhumerus -32.4881 9.95119 77.0657
lradius 17.4462
lwrist -12.4742
lhand -19.0205 -13.8872
lfingers 7.12502
lthumb 7.28537 15.9674
rfemur -21.4911 6.52967 20.4631
rtibia 10.4252
rfoot -15.7224 -5.46233
rtoes -24.5039
lfemur -73.0748 -3.36588 -21.7334
ltibia 78.8754
lfoot -12.1491 3.54071
ltoes -29.0371
497
root 9.87086 16.4397 3.83464 -160.617 0.067526 176.756
lowerback -19.7635 -1.17863 -6.75962
upperback 2.13968 0.0655093 -0.3948
thorax 13.611 -0.49595 3.42391
lowerneck -4.03089 -0.764875 -1.6862
upperneck 22.0715 -3.26973 3.24434
head 7.50112 -2.04881 1.01611
rclavicle 2.95692e-015 -1.30204e-014
rhumerus -32.4479 -10.8172 -80.9062
rradius 44.2648
rwrist -9.75834
rhand -10.1523 -51.4859
rfingers 7.12502
rthumb 15.837 -80.8581
lclavicle 2.95692e-015 -1.30204e-014
lhumerus -32.6435 10.7276 76.67
lradius 17.2011
lwrist -12.9764
lhand -18.9462 -13.6769
lfingers 7.12502
lthumb 7.35705 16.1752
rfemur -21.239 6.72456 20.4654
rtibia 10.5189
rfoot -15.9062 -5.76143
rtoes -24.4347
lfemur -73.4116 -3.3758 -21.6023
ltibia 78.053
lfoot -11.8741 3.31802
ltoes -28.0787
498
root 9.87306 16.4362 3.77567 -160.656 0.151638 176.732
lowerback -19.7836 -1.15924 -6.80989
upperback 2.21296 0.109937 -0.380899
thorax 13.7046 -0.483795 3.48225
lowerneck -3.37221 -0.693942 -1.46252
upperneck 21.2584 -3.02371 2.92472
head 7.10282 -1.92663 0.906301
rclavicle 1.01877e-015 1.4561e-014
rhumerus -32.1837 -10.4674 -80.9839
rradius 44.2997
rwrist -9.80278
rhand -10.1443 -52.568
rfingers 7.12502
rthumb 15.8447 -81.9396
lclavicle 1.01877e-015 1.4561e-014
lhumerus -32.665 11.9049 76.1344
lradius 16.6997
lwrist -13.8743
lhand -18.4172 -13.3045
lfingers 7.12502
lthumb 7.86766 16.5291
rfemur -21.033 6.79533 20.4651
rtibia 10.6214
rfoot -16.1883 -5.75139
rtoes -24.165
lfemur -73.7444 -3.40145 -21.4793
ltibia 77.2511
lfoot -11.9023 3.29725
ltoes -28.8307
499
root 9.87402 16.4345 3.72095 -160.664 0.202142 176.652
lowerback -19.7904 -1.13142 -6.91179
upperback 2.23311 0.177063 -0.414613
thorax 13.7254 -0.460833 3.52278
lowerneck -3.58917 -0.771791 -1.62419
upperneck 21.6884 -3.19989 3.01345
head 7.2898 -2.02823 0.943405
rclavicle -4.77083e-015 -1.80894e-014
rhumerus -32.0215 -10.1963 -81.0778
rradius 44.3422
rwrist -9.75912
rhand -10.1679 -52.9635
rfingers 7.12502
rthumb 15.8219 -82.337
lclavicle -4.77083e-015 -1.80894e-014
lhumerus -32.9725 12.4663 75.7181
lradius 16.5172
lwrist -14.2832
lhand -18.1113 -12.9666
lfingers 7.12502
lthumb 8.16296 16.8557
rfemur -20.882 6.79439 20.3975
rtibia 10.7761
rfoot -16.5262 -5.74656
rtoes -24.4424
lfemur -73.9912 -3.43041 -21.4454
ltibia 76.3718
lfoot -12.0337 3.31285
ltoes -30.9444
500
root 9.8724 16.434 3.66286 -160.712 0.228978 176.574
lowerback -19.851 -1.1017 -6.98196
upperback 2.29601 0.249135 -0.469282
thorax 13.8278 -0.435717 3.52312
lowerneck -3.83208 -0.845451 -1.63232
upperneck 21.9887 -3.34932 3.05836
head 7.43682 -2.10062 0.942922
rclavicle -2.83268e-015 1.43125e-014
rhumerus -31.9941 -9.95985 -81.1624
rradius 44.4404
rwrist -9.63797
rhand -9.81929 -52.9424
rfingers 7.12502
rthumb 16.1577 -82.2889
lclavicle -2.83268e-015 1.43125e-014
lhumerus -33.3109 12.6576 75.4418
lradius 16.5476
lwrist -14.3127
lhand -18.2158 -12.9522
lfingers 7.12502
lthumb 8.06202 16.874
rfemur -20.6412 6.72911 20.3526
rtibia 10.8629
rfoot -16.7618 -5.75525
rtoes -24.8116
lfemur -74.0622 -3.48421 -21.3947
ltibia 75.4004
lfoot -11.9594 3.17031
ltoes -31.3392
501
root 9.86845 16.4327 3.60195 -160.773 0.28954 176.494
lowerback -19.9153 -1.08889 -7.04556
upperback 2.40618 0.29944 -0.502888
thorax 13.9909 -0.423569 3.53697
lowerneck -3.73152 -0.727066 -1.53965
upperneck 21.7042 -3.09328 2.854
head 7.31419 -1.97501 0.88423
rclavicle 1.04362e-015 1.59028e-015
rhumerus -31.815 -9.81653 -81.2128
rradius 44.3616
rwrist -9.52041
rhand -9.66108 -51.795
rfingers 7.12502
rthumb 16.31 -81.1291
lclavicle 1.04362e-015 1.59028e-015
lhumerus -33.2404 13.2507 75.138
lradius 16.3325
lwrist -14.566
lhand -18.1327 -13.0209
lfingers 7.12502
lthumb 8.14228 16.8022
rfemur -20.3381 6.68928 20.2998
rtibia 10.8674
rfoot -16.9622 -5.74625
rtoes -25.198
lfemur -74.055 -3.57275 -21.323
ltibia 74.3986
lfoot -11.8499 2.9531
ltoes -30.2273
502
root 9.86963 16.4304 3.54509 -160.778 0.390516 176.417
lowerback -19.8854 -1.04274 -7.17105
upperback 2.43813 0.395591 -0.542484
thorax 14.0006 -0.389052 3.59318
lowerneck -3.66275 -0.696079 -1.4884
upperneck 21.7019 -3.04053 2.76675
head 7.29796 -1.9545 0.851852
rclavicle -4.52235e-015 -2.11706e-014
rhumerus -31.5921 -9.69232 -81.301
rradius 44.3596
rwrist -9.36897
rhand -9.67151 -50.9629
rfingers 7.12502
rthumb 16.3 -80.2978
lclavicle -4.52235e-015 -2.11706e-014
lhumerus -33.2264 13.6761 74.875
lradius 16.2136
lwrist -14.7952
lhand -17.9116 -12.8825
lfingers 7.12502
lthumb 8.35567 16.9323
rfemur -20.1205 6.8378 20.2331
rtibia 10.8898
rfoot -17.1434 -5.99206
rtoes -26.0726
lfemur -74.1228 -3.57314 -21.274
ltibia 73.4776
lfoot -11.8165 2.67698
ltoes -29.1148
